<svg xmlns="http://www.w3.org/2000/svg" height="24" viewBox="0 -960 960 960" width="24" fill="#eceff4"><path d="M160-120v-170l527-526q12-12 27-18t30-6q16 0 30.5 6t25.5 18l56 56q12 11 18 25.5t6 30.5q0 15-6 30t-18 27L330-120H160Zm80-80h56l393-392-28-28-29-28-392 393v55Zm560-503-57-57 57 57Zm-139 82-29-28 57 56-28-28ZM560-120q73 0 132.5-44T783-280H696q-25 36-64.5 58T560-200q-55 0-101.5-27.5T384-304l-71 71q45 51 108 82t139 31ZM160-400q0-124 67-224.5T408-765l55 83q-79 24-131 88t-52 144q0 17 3 33t9 31l-81 44q-1-12-1-25Z"/></svg>
