<svg xmlns="http://www.w3.org/2000/svg" height="24" viewBox="0 -960 960 960" width="24" fill="#eceff4"><path d="m370-80-16-128q-13-5-24.5-12T307-235l-119 50L78-375l103-78q-1-7-1-13.5v-27q0-6.5 1-13.5L78-585l110-190 119 50q11-8 23-15t24-12l16-128h220l16 128q13 5 24.5 12t22.5 15l119-50 110 190-103 78q1 7 1 13.5v27q0 6.5-1 13.5l103 78-110 190-119-50q-11 8-23 15t-24 12L590-80H370Zm70-80h80l12-93q20-5 39-15t35-23l86 36 40-68-74-56q3-10 4.5-21t1.5-23q0-12-1.5-23T673-495l74-56-40-68-86 36q-16-13-35-23t-39-15l-12-93h-80l-12 93q-20 5-39 15t-35 23l-86-36-40 68 74 56q-3 10-4.5 21t-1.5 23q0 12 1.5 23t4.5 21l-74 56 40 68 86-36q16 13 35 23t39 15l12 93Zm40-240q33 0 56.5-23.5T560-480q0-33-23.5-56.5T480-560q-33 0-56.5 23.5T400-480q0 33 23.5 56.5T480-400Zm0-80Z"/></svg>
